# xmcd CD database file
# Copyright (C) 1995 Ti Kan
#
# Track frame offsets:
#	150
#	15822
#	30802
#	48669
#	67135
#	82308
#	97185
#	114842
#	136129
#	151341
#	174635
#	192705
#	207321
#	255229
#	269080
#	289569
#	307489
#
# Disc length: 4380 seconds
#
# Revision: 1
# Processed by: cddbd v1.4b41PL1 Copyright (c) Steve Scherf et al.
# Submitted via: NotifyCDPlayer(CDDB) 1.60b6.1
#
DISCID=f7111a11
DTITLE=Emmylou Harris and The Nash Ramblers - 1994-05-01 - Merlefest-Wikesbo
DTITLE=ro NC
DYEAR=1900
DGENRE=
TTITLE0=Hard Times
TTITLE1=Two More Bottles of Wine
TTITLE2=Hello Stranger
TTITLE3=Sweet Dream
TTITLE4=The Boxer
TTITLE5=One of These Days
TTITLE6=Born to Run
TTITLE7=Ain't Living Long Like This
TTITLE8=Other Side of Life
TTITLE9=Jerusalem Tomorrow
TTITLE10=Me and My Sister
TTITLE11=Blue Kentucky Girl
TTITLE12=Instrumental
TTITLE13=Intro's
TTITLE14=Rough and Rocky
TTITLE15=C'est La Vie
TTITLE16=Jambalaya
EXTD=SDB recording
EXTT0=
EXTT1=
EXTT2=
EXTT3=
EXTT4=
EXTT5=
EXTT6=
EXTT7=
EXTT8=
EXTT9=
EXTT10=
EXTT11=
EXTT12=
EXTT13=
EXTT14=
EXTT15=
EXTT16=
PLAYORDER=
